<?xml version="1.0" encoding="UTF-8"?>
<svg version="1.1" xmlns="http://www.w3.org/2000/svg" width="150" height="150">
<path d="M0 0 C0.61617188 0.47824219 1.23234375 0.95648438 1.8671875 1.44921875 C9.53091211 8.21032691 15.01121528 19.8601096 16 30 C16.12216175 32.69208305 16.09808285 35.3027215 16 38 C15.32195312 38.01417969 14.64390625 38.02835938 13.9453125 38.04296875 C6.10002707 38.44501246 -0.76874394 40.11891686 -6.69921875 45.55859375 C-8.77074766 47.93877454 -10.00008632 50.00025895 -11 53 C-12.9609375 54.2109375 -12.9609375 54.2109375 -15.375 55.375 C-19.20897092 57.42587016 -21.42948479 58.77924038 -23 63 C-24.60055775 69.74520764 -23.33790073 74.55426238 -21 81 C-37.67892684 81.62221903 -49.73916998 80.06771025 -62.6875 68.625 C-73.56819185 56.27394439 -76.7149722 45.33817598 -76.13623047 29.02197266 C-75.39405534 18.00639122 -68.98554947 7.37012179 -61 0 C-42.29139657 -14.14483805 -18.70765865 -14.61758119 0 0 Z " fill="#FCA800" transform="translate(94,30)"/>
<path d="M0 0 C6.97174414 4.18304649 9.90089629 9.54865969 12.4453125 17.0546875 C12.4453125 15.4046875 12.4453125 13.7546875 12.4453125 12.0546875 C18.02551991 12.28245107 20.91860074 13.61233208 25 17.4375 C28.08272223 20.88681622 28.4453125 23.50484182 28.4453125 28.0546875 C27.7853125 28.3846875 27.1253125 28.7146875 26.4453125 29.0546875 C27.5796875 29.3434375 28.7140625 29.6321875 29.8828125 29.9296875 C31.64625 30.4865625 31.64625 30.4865625 33.4453125 31.0546875 C34.99118126 34.14642502 34.73890771 36.64898302 34.4453125 40.0546875 C32.33999273 42.86738767 31.14538626 43.92712894 27.65763855 44.56262207 C26.05049736 44.56739563 26.05049736 44.56739563 24.41088867 44.57226562 C23.19249802 44.58487427 21.97410736 44.59748291 20.71879578 44.61047363 C19.40522598 44.60237671 18.09165619 44.59427979 16.73828125 44.5859375 C15.37070948 44.58863412 14.00313957 44.59251797 12.63557434 44.59753418 C9.76980326 44.60342736 6.90453132 44.59487707 4.03881836 44.57617188 C0.38026236 44.55344603 -3.27711569 44.56646427 -6.93562794 44.59046173 C-9.76084615 44.60498071 -12.58578955 44.60028503 -15.41101646 44.58995056 C-17.41112919 44.5860125 -19.41125292 44.59808777 -21.41133118 44.61047363 C-28.30054194 44.539729 -33.04118488 44.36482894 -38.5546875 40.0546875 C-42.08594153 35.78417991 -43.21530764 31.80032206 -42.94140625 26.265625 C-42.11927764 21.56537456 -39.99813485 18.25756029 -36.3046875 15.1796875 C-32.68162583 13.69752591 -29.45344214 13.38509044 -25.5546875 13.0546875 C-26.8746875 12.7246875 -28.1946875 12.3946875 -29.5546875 12.0546875 C-28.01050727 6.22111775 -23.65287151 3.02625914 -18.75 -0.09375 C-13.14828452 -2.26665743 -5.59478007 -2.07023972 0 0 Z M22.4453125 30.0546875 C22.4453125 31.0446875 22.4453125 32.0346875 22.4453125 33.0546875 C23.1053125 32.0646875 23.7653125 31.0746875 24.4453125 30.0546875 C23.7853125 30.0546875 23.1253125 30.0546875 22.4453125 30.0546875 Z " fill="#AFAFAF" transform="translate(113.5546875,70.9453125)"/>
<path d="M0 0 C0.66 0 1.32 0 2 0 C2.48210938 0.91523437 2.96421875 1.83046875 3.4609375 2.7734375 C4.09876794 3.9740595 4.73679926 5.1745748 5.375 6.375 C5.69210938 6.97828125 6.00921875 7.5815625 6.3359375 8.203125 C7.7132062 10.78550382 8.91830581 12.91830581 11 15 C11 15.99 11 16.98 11 18 C8.56183415 18.0809723 6.12635616 18.14046972 3.6875 18.1875 C2.65206055 18.22520508 2.65206055 18.22520508 1.59570312 18.26367188 C-3.55674183 18.33834499 -3.55674183 18.33834499 -5.98046875 16.48828125 C-6.48513672 15.75158203 -6.48513672 15.75158203 -7 15 C-5.45454854 9.52067211 -2.84456788 4.88570819 0 0 Z " fill="#E99B00" transform="translate(15,81)"/>
<path d="M0 0 C5.6143991 1.56448671 10.86810338 3.16395187 16 6 C16.3359375 8.19921875 16.3359375 8.19921875 16 11 C13.6640625 13.45703125 13.6640625 13.45703125 10.625 15.8125 C9.12839844 16.99779297 9.12839844 16.99779297 7.6015625 18.20703125 C5 20 5 20 3 20 C2.86722656 19.05898437 2.73445313 18.11796875 2.59765625 17.1484375 C2.42105469 15.90320312 2.24445313 14.65796875 2.0625 13.375 C1.80146484 11.53035156 1.80146484 11.53035156 1.53515625 9.6484375 C1.06225699 6.42443816 0.54848998 3.21187824 0 0 Z " fill="#EA9C00" transform="translate(110,47)"/>
<path d="M0 0 C3.58383952 0.61547155 6.71348105 1.59206622 10.0625 3 C13.02591904 4.24198764 15.86036569 5.30391479 19 6 C17.53657956 9.52942577 15.65907491 11.44023431 12.6875 13.8125 C11.92824219 14.43769531 11.16898438 15.06289062 10.38671875 15.70703125 C8 17 8 17 5.20703125 16.69921875 C4.47871094 16.46847656 3.75039063 16.23773438 3 16 C2.49411853 14.08487728 1.99551609 12.16783078 1.5 10.25 C1.2215625 9.18265625 0.943125 8.1153125 0.65625 7.015625 C0 4 0 4 0 0 Z " fill="#EC9D00" transform="translate(37,108)"/>
<path d="M0 0 C-0.14166357 1.91697937 -0.28849584 3.83357723 -0.4375 5.75 C-0.51871094 6.81734375 -0.59992188 7.8846875 -0.68359375 8.984375 C-0.94090773 11.43679962 -1.31812218 13.63921291 -2 16 C-3.9375 15.6875 -3.9375 15.6875 -6 15 C-6.33 14.01 -6.66 13.02 -7 12 C-8.31252882 11.29325371 -9.65278717 10.63815344 -11 10 C-12.26565117 9.19063509 -13.51480996 8.35513157 -14.75 7.5 C-15.36359375 7.0771875 -15.9771875 6.654375 -16.609375 6.21875 C-17.06828125 5.8165625 -17.5271875 5.414375 -18 5 C-18 4.34 -18 3.68 -18 3 C-15.94651665 2.10404387 -13.88174343 1.23393124 -11.8125 0.375 C-10.66394531 -0.11226562 -9.51539062 -0.59953125 -8.33203125 -1.1015625 C-4.61716894 -2.10322526 -3.30361309 -1.82911911 0 0 Z " fill="#E99B00" transform="translate(106,18)"/>
<path d="M0 0 C5.64665273 0.34571343 10.70412403 2.09060254 16 4 C16 4.99 16 5.98 16 7 C14.20703125 8.4296875 14.20703125 8.4296875 11.8125 9.875 C8.9303922 11.68764641 6.4012158 13.3953977 4.0625 15.875 C3.381875 16.57625 2.70125 17.2775 2 18 C1.34 18 0.68 18 0 18 C-0.33895656 16.27192682 -0.67091525 14.54248026 -1 12.8125 C-1.185625 11.84957031 -1.37125 10.88664062 -1.5625 9.89453125 C-1.97381877 7.1732169 -2.22737119 4.74266495 -2 2 C-1.34 1.34 -0.68 0.68 0 0 Z " fill="#ED9E00" transform="translate(24,16)"/>
<path d="M0 0 C3.11935953 1.3286161 4.10605732 3.41867666 5.859375 6.2734375 C6.77976562 7.73910156 6.77976562 7.73910156 7.71875 9.234375 C9.109375 11.8984375 9.109375 11.8984375 9.109375 14.8984375 C2.509375 14.8984375 -4.090625 14.8984375 -10.890625 14.8984375 C-8.61983609 8.08607076 -8.61983609 8.08607076 -6.390625 4.5859375 C-5.9678125 3.90917969 -5.545 3.23242188 -5.109375 2.53515625 C-3.55134914 0.44280743 -2.62392594 -0.1409547 0 0 Z " fill="#EE9E00" transform="translate(64.890625,2.1015625)"/>
<path d="M0 0 C-1.32 5.94 -2.64 11.88 -4 18 C-8.96449502 16.01420199 -12.57843029 14.11748219 -16 10 C-16.4375 6.625 -16.4375 6.625 -16 4 C-14.56328432 3.35242375 -13.12559584 2.70700547 -11.6875 2.0625 C-10.88699219 1.70285156 -10.08648437 1.34320313 -9.26171875 0.97265625 C-5.38303548 -0.69537852 -4.28702842 -1.07175711 0 0 Z " fill="#EB9C00" transform="translate(18,48)"/>
<path d="M0 0 C0.763125 0.20625 1.52625 0.4125 2.3125 0.625 C2.9375 3.5 2.9375 3.5 3.3125 6.625 C1.3125 8.625 1.3125 8.625 -1.1875 8.875 C-3.6875 8.625 -3.6875 8.625 -5.6875 6.625 C-6 4.125 -6 4.125 -5.6875 1.625 C-2.6875 -0.375 -2.6875 -0.375 0 0 Z " fill="#CBCBCB" transform="translate(134.6875,125.375)"/>
<path d="M0 0 C2.375 0.75 2.375 0.75 3.375 1.75 C3.5625 4.1875 3.5625 4.1875 3.375 6.75 C2.715 7.41 2.055 8.07 1.375 8.75 C-1.75 8.375 -1.75 8.375 -4.625 7.75 C-5.3125 5.4375 -5.3125 5.4375 -5.625 2.75 C-3.9659358 -0.015107 -3.22812218 -0.30744021 0 0 Z " fill="#CBCBCB" transform="translate(140.625,134.25)"/>
<path d="M0 0 C2.375 0.75 2.375 0.75 3.375 1.75 C3.5625 4.1875 3.5625 4.1875 3.375 6.75 C2.715 7.41 2.055 8.07 1.375 8.75 C-1.75 8.375 -1.75 8.375 -4.625 7.75 C-5.3125 5.4375 -5.3125 5.4375 -5.625 2.75 C-3.9659358 -0.015107 -3.22812218 -0.30744021 0 0 Z " fill="#C7C7C7" transform="translate(128.625,134.25)"/>
<path d="M0 0 C3.125 0.375 3.125 0.375 6 1 C6.6875 3.3125 6.6875 3.3125 7 6 C5.875 7.875 5.875 7.875 4 9 C-0.42105263 8.57894737 -0.42105263 8.57894737 -2 7 C-2.1875 4.5625 -2.1875 4.5625 -2 2 C-1.34 1.34 -0.68 0.68 0 0 Z " fill="#C7C7C7" transform="translate(102,134)"/>
<path d="M0 0 C3.125 0.375 3.125 0.375 6 1 C6.6875 3.3125 6.6875 3.3125 7 6 C5.875 7.875 5.875 7.875 4 9 C-0.42105263 8.57894737 -0.42105263 8.57894737 -2 7 C-2.1875 4.5625 -2.1875 4.5625 -2 2 C-1.34 1.34 -0.68 0.68 0 0 Z " fill="#CBCBCB" transform="translate(90,134)"/>
<path d="M0 0 C2.375 0.75 2.375 0.75 3.375 1.75 C3.5625 4.1875 3.5625 4.1875 3.375 6.75 C2.715 7.41 2.055 8.07 1.375 8.75 C-1.75 8.375 -1.75 8.375 -4.625 7.75 C-5.3125 5.4375 -5.3125 5.4375 -5.625 2.75 C-3.9659358 -0.015107 -3.22812218 -0.30744021 0 0 Z " fill="#CECECE" transform="translate(81.625,134.25)"/>
<path d="M0 0 C2.375 0.75 2.375 0.75 3.375 1.75 C3.5625 4.1875 3.5625 4.1875 3.375 6.75 C2.715 7.41 2.055 8.07 1.375 8.75 C-1.75 8.375 -1.75 8.375 -4.625 7.75 C-5.3125 5.4375 -5.3125 5.4375 -5.625 2.75 C-3.9659358 -0.015107 -3.22812218 -0.30744021 0 0 Z " fill="#CCCCCC" transform="translate(122.625,125.25)"/>
<path d="M0 0 C0.763125 0.20625 1.52625 0.4125 2.3125 0.625 C2.9375 2.9375 2.9375 2.9375 3.3125 5.625 C2.3225 7.11 2.3225 7.11 1.3125 8.625 C-1.1875 8.9375 -1.1875 8.9375 -3.6875 8.625 C-5.6875 6.625 -5.6875 6.625 -6 4.125 C-5.896875 3.3 -5.79375 2.475 -5.6875 1.625 C-2.6875 -0.375 -2.6875 -0.375 0 0 Z " fill="#CCCCCC" transform="translate(87.6875,125.375)"/>
<path d="M0 0 C4.55555556 0.55555556 4.55555556 0.55555556 6 2 C6.1875 4.4375 6.1875 4.4375 6 7 C5.34 7.66 4.68 8.32 4 9 C0.875 8.625 0.875 8.625 -2 8 C-2.125 5.125 -2.125 5.125 -2 2 C-1.34 1.34 -0.68 0.68 0 0 Z " fill="#D3D3D3" transform="translate(108,125)"/>
<path d="M0 0 C4.55555556 0.55555556 4.55555556 0.55555556 6 2 C6.04080783 3.99958364 6.04254356 6.00045254 6 8 C3.125 8.625 3.125 8.625 0 9 C-2 7 -2 7 -2.25 4.5 C-2 2 -2 2 0 0 Z " fill="#D3D3D3" transform="translate(96,125)"/>
<path d="M0 0 C3.125 -0.1875 3.125 -0.1875 6 0 C6.38063221 2.3260857 6.71269945 4.66055264 7 7 C6 8 6 8 2.9375 8.0625 C1.968125 8.041875 0.99875 8.02125 0 8 C-1.125 5.6875 -1.125 5.6875 -2 3 C-1.34 2.01 -0.68 1.02 0 0 Z " fill="#CDCDCD" transform="translate(125,117)"/>
<path d="M0 0 C1.98 0 3.96 0 6 0 C7.125 2.3125 7.125 2.3125 8 5 C7.01 6.485 7.01 6.485 6 8 C2.9375 8.25 2.9375 8.25 0 8 C-0.33 7.67 -0.66 7.34 -1 7 C-0.71269945 4.66055264 -0.38063221 2.3260857 0 0 Z " fill="#CECECE" transform="translate(101,117)"/>
<path d="M0 0 C2.5625 0.1875 2.5625 0.1875 4.5625 2.1875 C4.1875 5.3125 4.1875 5.3125 3.5625 8.1875 C0.6875 8.3125 0.6875 8.3125 -2.4375 8.1875 C-3.0975 7.5275 -3.7575 6.8675 -4.4375 6.1875 C-3.71780303 0.28598485 -3.71780303 0.28598485 0 0 Z " fill="#D1D1D1" transform="translate(80.4375,116.8125)"/>
<path d="M0 0 C4.55555556 0.55555556 4.55555556 0.55555556 6 2 C6.1875 4.4375 6.1875 4.4375 6 7 C5.34 7.66 4.68 8.32 4 9 C-0.55555556 8.44444444 -0.55555556 8.44444444 -2 7 C-2.1875 4.5625 -2.1875 4.5625 -2 2 C-1.34 1.34 -0.68 0.68 0 0 Z " fill="#D7D7D7" transform="translate(114,134)"/>
<path d="M0 0 C2.5625 0.1875 2.5625 0.1875 4.5625 2.1875 C4.00694444 6.74305556 4.00694444 6.74305556 2.5625 8.1875 C0.125 8.375 0.125 8.375 -2.4375 8.1875 C-3.0975 7.5275 -3.7575 6.8675 -4.4375 6.1875 C-3.71780303 0.28598485 -3.71780303 0.28598485 0 0 Z " fill="#D7D7D7" transform="translate(139.4375,116.8125)"/>
<path d="M0 0 C3 0.125 3 0.125 4 1.125 C4.125 4.125 4.125 4.125 4 7.125 C3 8.125 3 8.125 0 8.25 C-3 8.125 -3 8.125 -4 7.125 C-4.125 4.125 -4.125 4.125 -4 1.125 C-3 0.125 -3 0.125 0 0 Z " fill="#D6D6D6" transform="translate(116,116.875)"/>
<path d="M0 0 C2.5625 0.1875 2.5625 0.1875 4.5625 2.1875 C4.00694444 6.74305556 4.00694444 6.74305556 2.5625 8.1875 C0.125 8.375 0.125 8.375 -2.4375 8.1875 C-3.0975 7.5275 -3.7575 6.8675 -4.4375 6.1875 C-3.71780303 0.28598485 -3.71780303 0.28598485 0 0 Z " fill="#D7D7D7" transform="translate(92.4375,116.8125)"/>
<path d="M0 0 C0.66 0.33 1.32 0.66 2 1 C-1.96 4.96 -5.92 8.92 -10 13 C-10.66 12.67 -11.32 12.34 -12 12 C-10.75479583 10.55834372 -9.50362077 9.12184348 -8.25 7.6875 C-7.55390625 6.88699219 -6.8578125 6.08648437 -6.140625 5.26171875 C-4.20854665 3.22034399 -2.30056874 1.60107149 0 0 Z " fill="#C38500" transform="translate(37,27)"/>
<path d="M0 0 C0.66 0.33 1.32 0.66 2 1 C-0.31 3.31 -2.62 5.62 -5 8 C-5 5 -5 5 -2.5 2.3125 C-1.675 1.549375 -0.85 0.78625 0 0 Z " fill="#969696" transform="translate(78,86)"/>
</svg>
